<svg xmlns="http://www.w3.org/2000/svg" width="218" height="21">
    <path fill-rule="evenodd" d="M215.421 20.151a1.74 1.74 0 0 1-1.75-1.75c0-.95.775-1.751 1.75-1.751.951 0 1.751.801 1.751 1.751 0 .975-.8 1.75-1.751 1.75zM200.022 1.598h2.9v18.553h-2.9V1.598zm-23.05 18.553h-2.9V.723L185.723 13.5V1.598h2.925v19.403L176.972 8.224v11.927zm-16.374-2.725c-.875.85-1.85 1.525-2.95 2a9.477 9.477 0 0 1-3.626.725 9.26 9.26 0 0 1-3.6-.725 9.198 9.198 0 0 1-2.95-2 9.203 9.203 0 0 1-2-2.951 9.26 9.26 0 0 1-.725-3.6c0-1.251.25-2.476.725-3.626.475-1.1 1.15-2.075 2-2.951a9.13 9.13 0 0 1 2.95-1.975 9.26 9.26 0 0 1 3.6-.725c1.251 0 2.476.25 3.626.725a9.7 9.7 0 0 1 2.95 1.975c.85.876 1.5 1.851 1.975 2.951a9.477 9.477 0 0 1 .725 3.626 9.26 9.26 0 0 1-.725 3.6 9.134 9.134 0 0 1-1.975 2.951zm-2.075-11.052a6.339 6.339 0 0 0-4.501-1.876c-1.7 0-3.3.676-4.5 1.876a6.338 6.338 0 0 0 0 9.001 6.334 6.334 0 0 0 9.001 0 6.337 6.337 0 0 0 0-9.001zm-27.726 13.677c-.375.075-.75.1-1.125.1-.75 0-1.5-.125-2.2-.4-1.175-.475-2.2-1.25-3.075-2.375l2.3-1.801c.525.7 1.15 1.201 1.825 1.451a2.85 2.85 0 0 0 1.7.15c.95-.175 1.725-.801 1.95-1.551.25-.85-.325-1.6-.85-2.1-.825-.775-2.175-2.1-2.275-2.2l-2.275-2.151c-.7-.675-1.175-1.425-1.425-2.225-.25-.775-.275-1.6-.05-2.351.225-.8.7-1.5 1.375-2.075.625-.525 1.4-.9 2.225-1.05.9-.2 1.85-.125 2.75.2.95.375 1.8 1 2.525 1.875l-2.275 1.826c-.95-1.151-1.925-1.151-2.45-1.051-.65.126-1.2.551-1.35 1.076-.1.35-.075.925.7 1.675l3.1 2.975c.45.45 1 .976 1.4 1.351.8.725 1.35 1.55 1.625 2.425.275.85.3 1.75.05 2.601-.525 1.8-2.15 3.225-4.175 3.625zm-34.9-18.453h2.9v18.553h-2.9V1.598zM80.623 20.151h-2.926V4.198h-5.1v-2.6h13.126v2.6h-5.1v15.953zm-19.1-3.976h-6.601l-1.575 3.976h-3.2L58.223.748l8.05 19.403h-3.175l-1.575-3.976zm-3.3-8.251l-2.251 5.651h4.501l-2.25-5.651zm-25.4 1.875l-4.6 11.177-8.501-19.378h3.2l5.226 12.227 3.075-7.701 1.5-3.826 1.625 3.776 3.3 7.751 4.876-12.227h3.175l-7.976 19.378-4.9-11.177zM7.022 20.051c-.375.075-.75.1-1.125.1-.75 0-1.5-.125-2.2-.4-1.175-.475-2.2-1.25-3.075-2.375l2.3-1.801c.525.7 1.15 1.201 1.825 1.451a2.85 2.85 0 0 0 1.7.15c.95-.175 1.725-.801 1.95-1.551.25-.85-.325-1.6-.85-2.1-.825-.775-2.175-2.1-2.275-2.2L2.997 9.174c-.7-.675-1.175-1.425-1.425-2.225-.25-.775-.275-1.6-.05-2.351.225-.8.7-1.5 1.375-2.075.625-.525 1.4-.9 2.225-1.05.9-.2 1.85-.125 2.75.2.95.375 1.8 1 2.526 1.875L8.122 5.374c-.95-1.151-1.925-1.151-2.45-1.051-.65.126-1.2.551-1.35 1.076-.1.35-.075.925.7 1.675l3.1 2.975c.45.45 1 .976 1.4 1.351.801.725 1.351 1.55 1.626 2.425.275.85.3 1.75.05 2.601-.525 1.8-2.15 3.225-4.176 3.625z"/>
</svg>
