<svg height="512pt" viewBox="-62 0 512 512" width="512pt" xmlns="http://www.w3.org/2000/svg"><path d="m365.457031 437.890625c-.003906 0-.007812-.003906-.011719-.003906l-65.828124-25.175781 66.78125-25.492188c11.453124-4.371094 19.144531-13.894531 21.105468-26.128906 2.304688-14.402344-3.570312-30.113282-14.625-39.09375-7.542968-6.125-16.582031-8.535156-26.078125-7.117188 6.273438-19.25 9.988281-42.253906 10.402344-65.4375.554687-31.207031-4.808594-58.839844-15.105469-77.796875-3.789062-6.980469-11.261718-13.707031-19.449218-12.992187-2.738282.238281-9.460938 1.828125-12.664063 11.378906-1.527344 4.523438-2.695313 8.617188-3.726563 12.226562-1.039062 3.632813-2.019531 7.058594-2.75 8.601563-3.691406 7.707031-10.671874 12.136719-16.992187 10.769531-8.089844-1.753906-13.316406-12.875-13.644531-29.023437-.441406-22.039063-3.558594-42.867188-9.257813-61.902344-1.199219-3.996094-5.40625-6.269531-9.410156-5.070313-3.996094 1.195313-6.265625 5.40625-5.070313 9.40625 5.308594 17.726563 8.210938 37.199219 8.628907 57.871094.71875 35.375 19.742187 42.230469 25.554687 43.492188 13.183594 2.855468 27.089844-4.964844 33.835938-19.039063 1.273437-2.691406 2.316406-6.335937 3.636718-10.949219.984376-3.449218 2.105469-7.363281 3.519532-11.566406.097656-.289062.1875-.53125.277344-.730468 1.175781.738281 2.960937 2.40625 4.230468 4.742187 17.859375 32.898437 17.53125 99.664063-.347656 142.027344l-61.617188 23.566406c4-15.703125 5.71875-31.066406 5.109376-45.835937-.171876-4.167969-3.710938-7.40625-7.863282-7.238282-4.171875.171875-7.410156 3.695313-7.238281 7.863282.683594 16.535156-1.898437 34-7.671875 51.964843l-55.195312 21.109375-66.183594-25.308594c-3.875-12.199218-5.308594-26.292968-3.917969-39.222656 1.460937-13.613281 5.4375-19.59375 6.9375-20.488281 4.101563 1.21875 8.335937 10.238281 10.878906 15.65625 1.363281 2.898437 2.648438 5.640625 4.027344 7.835937 9.945313 15.738282 21.355469 16.953126 27.269531 16.28125 10.265625-1.171874 19.253906-9.359374 23.449219-21.363281 7.90625-22.617187 12.597656-58.117187-.203125-83.722656-3.507812-7.03125-3.113281-10.433594-2.570312-10.875 2.214843-1.8125 12.5-.5625 21.992187 6.835937 16.628906 12.941407 28.914063 30.164063 35.523437 49.8125 1.328126 3.957032 5.617188 6.082032 9.570313 4.753907 3.953125-1.332031 6.082031-5.617188 4.75-9.574219-7.558594-22.46875-21.582031-42.152344-40.558594-56.917969-12.144531-9.46875-30.59375-15.003906-40.847656-6.609375-4.246094 3.476563-10.070313 11.902344-1.378906 29.328125 11.4375 22.878907 5.039062 56.007813-.542969 71.980469-2.199219 6.285156-6.578125 10.839844-10.898438 11.335938-5.585937.625-10.398437-5.578126-12.761718-9.320313-.878906-1.398437-1.976563-3.734375-3.136719-6.207031-4.199219-8.941406-9.949219-21.191406-21.101563-23.953125-5.632812-1.386719-11.121093.496093-15.445312 5.3125-10.136719 11.289062-13.214844 37.992187-8.300781 62.515625l-48.816407-18.667969c-3.09375-11.9375-5.910156-31.632813 1.855469-49.980469 16.585938-39.15625 15.4375-43.207031-4.914062-84.351562l-2.992188-6.050782c-1.636719-3.328124-3.859375-6.648437-5.820312-9.578124-.859375-1.28125-1.960938-2.925782-2.828125-4.351563 13.710937-8.042969 37.027344-2.101563 49.75 9.222656 9.953125 8.855469 19.773437 16.675781 30.347656 15.128907 6.042969-.886719 11.167969-4.679688 15.238281-11.277344 40.703125-65.832032 15.640625-119.898438 2.175781-148.945313-2.703124-5.832031-5.972656-12.882812-6.691406-16.355469.453125-.046874 1.042969-.082031 1.789063-.082031h.15625c14.777343 0 32.527343 5.886719 48.722656 16.160157 19.765625 12.539062 36.4375 30.941406 48.214844 53.21875 1.953125 3.691406 6.527343 5.097656 10.214843 3.148437 3.6875-1.953125 5.097657-6.523437 3.144532-10.214844-28.144532-53.230469-76.855469-77.425781-110.300782-77.425781-.0625 0-.132812 0-.195312 0-2.6875.0078125-10.863281.03125-14.96875 6.484375-4.839844 7.605469-.449219 17.082031 6.199219 31.425781 13.132812 28.324219 35.105469 75.730469-1.320313 134.648438-1.109375 1.800781-2.808594 4.003906-4.570312 4.261718-4.484375.648438-13.6875-7.53125-18.109375-11.464843-17.691407-15.746094-49.507813-23.191407-69.460938-9.695313-3.84375 1.472656-5.445312 4.25-6.082031 5.890625-2.367188 6.125 1.519531 11.921875 6.015625 18.636719 1.785156 2.660156 3.628906 5.410156 4.824219 7.839844l3 6.078125c9.488281 19.175781 14.246094 28.800781 14.828125 37.246093.546875 8.015626-2.546875 16.25-10.28125 34.507813-7.484375 17.671875-7.003907 35.964844-4.679688 49.773437-10.871093-2.769531-21.335937-.578124-29.875 6.359376-11.050781 8.976562-16.921875 24.679687-14.617187 39.082031 1.960937 12.242187 9.65625 21.773437 21.109375 26.140625l66.746093 25.488281-65.644531 25.125c-14.9375 5.222656-24.664062 22.046875-22.351562 40.4375 1.34375 10.855469 6.726562 20.660156 14.769531 26.90625 5.753906 4.464844 12.503906 6.828125 19.328125 6.828125 1.25 0 2.503906-.078125 3.753906-.238281 1.21875-.152344 2.40625-.382813 3.574219-.679688.277344-.058593.550781-.136719.824219-.226562 1.632812-.464844 3.210937-1.066407 4.71875-1.789063l146.683593-56.011718s151.925782 57.960937 152.179688 58.019531c1.171875.296875 2.367188.53125 3.59375.683593 1.253906.164063 2.511719.242188 3.765625.242188 6.832031 0 13.582031-2.363281 19.332031-6.824219 8.042969-6.246093 13.425782-16.054687 14.769532-26.894531 2.304687-18.332031-7.339844-35.097656-22.191407-40.390625zm-21.753906-106.648437c7.378906-2.820313 14.171875-1.960938 19.648437 2.488281 6.890626 5.597656 10.683594 15.867187 9.226563 24.96875-.777344 4.851562-3.414063 11.285156-11.570313 14.398437l-82.5625 31.519532-63.296874-24.207032zm-328.351563 145.152343c-1.402343-11.175781 3.914063-21.304687 12.191407-24.253906.140625-.042969.28125-.085937.421875-.136719l.105468-.039062c.832032-.265625 1.695313-.457032 2.582032-.570313h.011718c.652344-.082031 1.285157-.121093 1.902344-.121093 4.34375 0 7.804688 1.921874 10.042969 3.660156 4.890625 3.796875 8.183594 9.925781 9.039063 16.832031 1.289062 10.246094-3.085938 19.613281-10.21875 23.375l-3.421876 1.304687c-.558593.140626-1.125.25-1.707031.324219-5.210937.667969-9.355469-1.554687-11.90625-3.535156-4.890625-3.800781-8.1875-9.929687-9.042969-16.839844zm50.253907 9.511719c1.324219-5.007812 1.738281-10.4375 1.039062-16.015625-1.34375-10.851563-6.726562-20.652344-14.765625-26.898437-.042968-.03125-.085937-.0625-.128906-.09375l57.765625-22.109376 63.308594 24.175782zm255.757812-16.027344c-.699219 5.582032-.285156 11.015625 1.039063 16.027344l-209.867188-80.140625c-.214844-.09375-.433594-.179687-.65625-.253906l-84.886718-32.414063c-8.15625-3.113281-10.796876-9.558594-11.574219-14.414062-1.457031-9.101563 2.335937-19.363282 9.222656-24.957032 5.472656-4.445312 12.261719-5.304687 19.632813-2.484374l291.972656 111.660156c-.035156.027344-.074219.054687-.109375.082031-8.046875 6.246094-13.429688 16.050781-14.773438 26.894531zm51.289063 6.53125c-.855469 6.894532-4.148438 13.027344-9.039063 16.824219-2.554687 1.980469-6.691406 4.199219-11.925781 3.53125-.574219-.074219-1.132812-.179687-1.683594-.316406l-3.457031-1.320313c-7.109375-3.765625-11.472656-13.128906-10.1875-23.378906.855469-6.894531 4.148437-13.027344 9.042969-16.824219 2.234375-1.734375 5.683594-3.65625 10.015625-3.65625.613281 0 1.242187.039063 1.890625.125h.015625c.925781.117188 1.820312.320313 2.6875.597657l.03125.011718c.039062.015625.078125.023438.117187.035156 8.449219 2.816407 13.914063 13.054688 12.492188 24.371094zm0 0"/></svg>